<?xml version="1.0" encoding="UTF-8" standalone="no"?>
<!-- Created with Inkscape (http://www.inkscape.org/) -->

<svg
   version="1.1"
   id="svg1"
   width="1316"
   height="537"
   viewBox="0 0 1316 537"
   sodipodi:docname="logo_light_V2.png"
   inkscape:export-filename="logo_light_V2.svg"
   inkscape:export-xdpi="15"
   inkscape:export-ydpi="15"
   xmlns:inkscape="http://www.inkscape.org/namespaces/inkscape"
   xmlns:sodipodi="http://sodipodi.sourceforge.net/DTD/sodipodi-0.dtd"
   xmlns="http://www.w3.org/2000/svg"
   xmlns:svg="http://www.w3.org/2000/svg">
  <defs
     id="defs1" />
  <sodipodi:namedview
     id="namedview1"
     pagecolor="#ffffff"
     bordercolor="#000000"
     borderopacity="0.25"
     inkscape:showpageshadow="2"
     inkscape:pageopacity="0.0"
     inkscape:pagecheckerboard="0"
     inkscape:deskcolor="#d1d1d1">
    <inkscape:page
       x="0"
       y="0"
       width="1316"
       height="537"
       id="page2"
       margin="0"
       bleed="0" />
  </sodipodi:namedview>
  <g
     inkscape:groupmode="layer"
     inkscape:label="Image"
     id="g1">
    <path
       style="fill:#a42527;stroke:none"
       d="m 593.90924,267.36304 c -5.51593,-7.76566 -14.03241,-13.63193 -21,-20.08875 -17.14893,-15.89187 -34.65003,-31.41003 -52,-47.08102 -47.40759,-42.81992 -94.978,-85.50211 -142,-128.744572 -16.53165,-15.20285 -33.46851,-29.96854 -50,-45.1713 -3.88114,-3.56921 -13.23068,-15.52801 -19,-13.33258 -6.95224,2.64557 -13.43561,11.17792 -19,15.99384 -16.1211,13.95254 -31.9975,28.18274 -48,42.26929 -53.65958,47.235012 -106.8927,95.010222 -160.999999,141.731472 -14.781303,12.76355 -29.314098,25.8317 -44,38.70835 -4.143936,3.63342 -15.01416,10.28589 -16.168211,15.88504 -1.376869,6.6802 10.214762,12.3154 15.168211,13.78625 25.264252,7.50193 47.987351,-19.1575 64.999999,-33.53164 l 149,-126 c 14.99872,-12.67258 29.96039,-25.389962 45,-38.013892 3.61517,-3.03449 11.75863,-13.00604 17,-11.29398 5.74023,1.875 11.4931,9.55152 16,13.45911 12.86358,11.15311 25.22217,22.890052 38,34.138892 46.67657,41.09127 92.61542,83.03277 139,124.45138 22.62408,20.20197 60.29407,56.76215 88,22.83411 m -125,-198.000002 1,46.000002 0.60339,21.99615 14.39661,14.00385 41,34 V 69.363038 h -57 m -160,33.305542 c -5.23712,1.10117 -10.98764,8.10391 -15,11.44754 l -36,30.16666 c -39.06235,32.5921 -77.93802,65.4082 -117,98 l -33,27.66668 c -4.11373,3.42389 -11.311301,7.47486 -13.396605,12.58335 -3.991173,9.77743 -0.603394,27.2709 -0.603394,37.83023 v 90 77 c 0,9.40411 -2.689353,23.39389 4.224544,30.89508 6.832425,7.41278 18.669095,5.10492 27.775455,5.10492 h 70 207 64 c 10.96283,0 23.32635,1.56488 34,-1.35492 13.41974,-3.67102 13,-18.49323 13,-29.64508 v -90 -83 c 0,-10.38956 2.99682,-26.23923 -0.6034,-36 -1.75128,-4.74808 -6.77426,-7.93137 -10.3966,-11.1659 -8.65079,-7.72464 -17.28095,-15.47116 -26,-23.11883 -30.83234,-27.04376 -61.62244,-54.23706 -92,-81.79013 -18.17356,-16.4838 -36.87555,-32.38803 -55,-48.92514 -4.15924,-3.79495 -14.90714,-16.97556 -21,-15.69446 m 1,11.86111 c 6.52063,0.25452 16.36011,12.59983 21,16.83335 18.12448,16.53714 36.82644,32.44134 55,48.92514 27.08691,24.56839 54.72226,48.5516 82,72.90896 10.41125,9.29664 29.68851,20.65983 35.97223,33.16666 4.40136,8.76029 1.02777,26.25937 1.02777,35.99924 v 89 73 c 0,7.56262 2.56796,20.87494 -3.27854,26.72143 -5.84652,5.84656 -19.15884,3.27857 -26.72146,3.27857 h -71 -197 c -31.65198,0 -65.56204,3.51056 -96.98457,-0.1088 -11.031285,-1.27063 -7.01543,-23.03186 -7.01543,-30.8912 v -100 -69 c 0,-7.72821 -2.54331,-21.01813 1.02778,-27.98535 2.3852,-4.65351 8.08175,-7.96891 11.97222,-11.28626 8.60805,-7.33999 17.31361,-14.56106 26,-21.80865 30.70117,-25.61585 61.67544,-50.98999 92,-77.05014 18.13898,-15.5882 36.6264,-30.80518 55,-46.11652 4.63754,-3.86462 14.66934,-15.83353 21,-15.58643 m 78,119.3017 c -29.23868,5.37503 -20.93692,48.28635 8,43.20294 27.27698,-4.79181 19.16849,-48.19741 -8,-43.20294 m -163,180.53165 h -38 c -4.57184,0 -11.7095,-1.30463 -15.77161,1.17901 -3.94749,2.41358 -3.22687,7.8624 -3.22839,11.82099 -0.003,8.11322 -3.33293,22.86352 7,25 0,6.63248 -3.28645,26.01108 3.14815,29.82098 3.94085,2.33338 10.45315,1.17902 14.85185,1.17902 h 35 117 32 c 4.09573,0 10.18265,1.09192 13.86651,-1.02777 7.50803,-4.32013 7.63205,-27.00312 9.13349,-34.97223 21.49457,8.01184 48.12298,-4.89346 41.7608,-31 -1.5339,-6.29425 -7.64749,-27.26453 -15.7716,-26.66281 -4.15162,0.30749 -6.20078,3.79471 -5.59107,7.66357 1.36588,8.66702 9.07538,16.12076 9.31174,24.99924 0.29699,11.15643 -14.55936,19.39191 -23.56095,12.29706 -5.6907,-4.48529 -0.94088,-16.31101 0.10108,-22.29706 1.77746,-10.21161 2.16247,-23.46146 6.31402,-32.95679 1.76419,-4.03503 6.37922,-5.89895 9.22223,-9.08642 6.05753,-6.79142 6.30854,-18.09787 0,-24.85187 -8.01068,-8.5763 -21.19601,-6.10492 -31.78625,-6.10492 h -81 c -11.07858,0 -24.90021,-2.27121 -31.4668,9.01465 -8.86633,15.2384 5.8009,19.94085 10.95291,31.02856 4.90589,10.55805 3.77753,23.92304 7.51389,34.95679 h -15 c -6.7e-4,-6.03443 0.0361,-11.84595 -3.64893,-16.98535 -3.45135,-4.81345 -9.04638,-6.5036 -9.33178,-13.0185 -1.61396,-36.84045 -0.0193,-74.11602 -0.0193,-110.99615 0,-13.56598 2.62411,-33.987 -17,-32.95603 -18.09793,0.95081 -14,23.55375 -14,35.95603 v 74 c 0,11.85776 1.76404,25.26391 -0.14815,36.95987 -0.79262,4.84805 -6.1662,7.12762 -8.71837,11.05478 -3.2232,4.95974 -3.13286,10.30426 -3.13348,15.98535 m 166,-167.48148 c 11.66995,-0.49252 12.94751,17.7396 1,18.32871 -12.01514,0.59247 -13.23303,-17.81244 -1,-18.32871 m -135,142.48148 h -6 v -104 c 0,-8.32034 -0.24692,-16.6832 0.0154,-24.99924 0.068,-2.15661 0.31617,-7.41342 3.77546,-6.82483 2.93329,0.49909 2.20493,5.79553 2.20911,7.82407 v 24 104 m 40,-105.47067 c -24.56317,5.66854 -15.10629,42.50445 9,36.94134 23.55649,-5.43622 14.79523,-42.43268 -9,-36.94134 m 596,8.9537 c -17.16364,2.90143 -11.58515,26.32031 5,23.85803 17.19501,-2.55285 11.58191,-26.66116 -5,-23.85803 m -592.95679,4.05939 c 7.83869,-1.36041 9.99652,10.55066 1.94522,11.91516 -7.42163,1.25775 -9.1958,-10.6568 -1.94522,-11.91516 m 257.95679,7.45758 v 98 h 21 l -3,-67 h 1 l 14.80786,44 7.41669,13.6821 11.70062,-1.2855 7.07483,-17.3966 13,-39 h 1 l -3,67 h 22 v -98 l -25.48999,1.02777 -6.45679,14.97223 -14.05322,44 h -1 l -20,-60 h -26 m 167,77 c -14.33875,4.09909 -28.633,8.21988 -35,-10 h 44 c 0.80041,-10.14081 1.36938,-20.53552 -3.37805,-30 -9.79993,-19.53708 -37.95099,-20.48429 -52.52857,-5.90665 -11.00512,11.00522 -13.15582,28.41825 -9.16668,42.90665 5.36199,19.47442 23.64093,26.26205 42.0733,24.90973 4.93841,-0.36231 17.74542,-2.61652 19.58179,-8.12268 1.33386,-3.99964 -4.03925,-10.2074 -5.58179,-13.78705 m 78,-47 c -11.37091,-7.49909 -24.44666,-11.55798 -38,-7.69907 -13.33563,3.79694 -22.49725,18.49039 -15.55786,31.69907 4.20501,8.0039 13.59118,11.59939 21.55786,14.68442 3.15405,1.22137 9.51544,3.6575 9.51544,7.8796 0,13.21155 -22.85175,-1.33145 -26.42206,-0.68286 -3.7586,0.68283 -10.6242,10.01215 -8.93213,13.79013 2.83832,6.33728 16.73841,9.16224 22.83875,9.31406 18.36011,0.45685 39.76892,-7.03467 34.60644,-29.98535 -2.5473,-11.32453 -14.22259,-14.75897 -23.60644,-18.42902 -3.14862,-1.23144 -9.80689,-3.92813 -8.50311,-8.43826 2.85699,-9.88333 16.61724,1.48617 21.46374,0.84567 4.87262,-0.64395 9.08356,-9.05121 11.03937,-12.97839 m 19,44 h -1 c -2.64038,3.32937 -9.84894,10.22595 -9.09339,14.81482 0.75275,4.57153 9.40357,6.98388 13.09339,8.15661 12.42444,3.94898 31.29278,3.95996 40.21142,-7.14505 10.38892,-12.93573 3.93854,-29.75003 -10.21142,-35.95062 -4.51605,-1.97897 -17.75018,-4.28525 -17.6543,-10.82559 0.16101,-10.97977 17.98401,0.40808 21.61493,-0.0718 4.87262,-0.64395 9.08356,-9.05124 11.03937,-12.97839 -16.90973,-11.15198 -61.58331,-14.85135 -55.53162,18 1.88471,10.23102 10.66736,15.31933 19.53162,19.12732 4.35425,1.87054 10.63483,3.11917 13.0293,7.74536 2.1466,4.14722 -3.80378,6.77582 -7.0293,6.97839 -6.76166,0.42465 -13.10718,-3.69427 -18,-7.85107 m 165,17 -8,-14 c -13.18305,5.08557 -29.55567,7.58279 -34,-10 h 44 c 0,-12.95227 1.01825,-26.5022 -8.32874,-36.90665 -15.65631,-17.42758 -45.51678,-8.24045 -54.85028,10.90665 -19.84503,40.71087 26.08368,73.12604 61.17902,50 m -103,-68 v 75 h 23 v -75 h -23 m -169,29 h -25 c 1.71057,-16.59253 23.50983,-16.93891 25,0 m 255,-1 -26,1 c 5.01953,-15.26608 21.22192,-17.47107 26,-1 m -777,-8.44214 c -18.79204,4.9371 -10.75342,34.28668 8,29.90897 20.23463,-4.72348 12.40687,-35.2703 -8,-29.90897 m 101.04397,5.87579 c 9.01816,-2.63141 21.57633,-0.43365 30.95603,-0.43365 h 66 c 5.60095,0 13.68799,-1.46942 18.95602,0.60339 3.90943,1.53824 6.11112,6.63339 2.60648,9.79706 -6.03168,5.44489 -22.0401,2.59955 -29.5625,2.59955 h -60 c -8.90738,0 -20.49124,1.92114 -28.98071,-1.14813 -5.75065,-2.07911 -6.22205,-9.59549 0.0247,-11.41822 m -96.13888,6.91046 c 2.67384,0.0593 1.93184,4.23884 -0.64197,3.73615 -2.23884,-0.43732 -1.45076,-3.78253 0.64197,-3.73615 m 203.09491,17.65589 -8,45 c -13.19843,-8.25559 -24.30408,-21.03049 -36,-31.28473 -3.65912,-3.20807 -9.38263,-10.2439 -14.76773,-6.10803 -8.64887,6.64251 11.36783,19.62982 15.76773,23.55865 8.61273,7.69065 26.25311,18.22751 30.88272,28.83795 2.44611,5.60614 -1.69977,25.31427 -4.61035,30.67826 -1.89743,3.49685 -7.97705,2.3179 -11.27237,2.3179 h -29 c -2.80298,-1.8e-4 -7.97522,0.91803 -9.97223,-1.6034 -5.61044,-7.08374 1.86838,-15.78884 4.23071,-21.50079 2.35199,-5.68689 2.39166,-22.1221 0.13812,-27.85184 -4.34411,-11.04507 -20.65261,-0.51077 -27.65817,-6.07174 -2.52032,-2.00061 -2.48361,-7.07205 -2.98843,-9.97223 -1.51114,-8.68152 -3.63855,-17.25137 -4.75,-26 h 98 m -131,37 h -32 c 1.51259,-17.19476 30.57764,-17.25214 32,0 m 833.99998,-4.49304 c -17.4308,2.50293 -12.9511,26.34988 4,23.8341 16.7954,-2.4927 12.3634,-26.18377 -4,-23.8341 m -308.99998,34.49304 -10,1 v 17 h 10 v 57 h 24 v -57 h 13 v -18 h -13 c 0.0339,-11.79999 5.26776,-13.84583 16,-13 l 4,-17 c -24.53742,-6.89548 -43.77887,3.2857 -44,30 m 388.99998,0 c -12.307,0.0353 -10,7.89392 -10,18 h 10 v 57 h 23 v -57 h 14 v -18 h -14 c 0.263,-12.34772 6.1723,-13.85452 17,-13 0.3354,-4.10819 4.3908,-12.86563 1.9328,-16.41126 -2.557,-3.6886 -11.1065,-2.59466 -14.9328,-2.58874 -19.7699,0.0305 -27,14.12854 -27,32 m -263.99998,-31 v 69 c 0,9.77661 -1.40436,22.58548 4.64892,30.98456 6.41846,8.90582 18.75257,7.79742 28.35108,6.01544 l -2,-18 c -9.74616,-1.52185 -7,-13.50238 -7,-21 v -67 h -24 m 44,0 v 70 c 0,9.76959 -1.75025,22.60712 4.80017,30.81482 6.54565,8.20172 18.99652,6.8938 28.19983,5.18518 l -2.7384,-15.68674 -7.07258,-9.31402 -0.18902,-80.99924 h -23 m 171.99998,0 v 69 c 0,9.68262 -1.3284,22.69098 4.6489,30.98456 6.4184,8.90582 18.7525,7.79742 28.3511,6.01544 l -2,-18 c -9.7463,-1.52188 -7,-13.50232 -7,-21 v -67 h -24 m -128,1 v 105 h 23 c 0,-14.58341 -3.3803,-33.88037 0.3178,-47.96063 1.3775,-5.24454 9.3716,-10.20722 14.6668,-8.28165 5.7148,2.07819 6.742,8.94409 6.9761,14.24228 0.6159,13.94452 0.039,28.04101 0.039,42 h 23 c 0,-19.13614 3.5969,-42.47296 -1.49,-61 -3.8424,-13.99426 -18.4635,-19.05353 -31.51,-14.45215 -4.7756,1.68427 -8.9068,4.54578 -13,7.45215 l 1,-37 h -23 m -452.99998,7 v 98 h 22 l -3,-69 h 1 c 4.16437,17.53247 15.71448,34.03717 23.75232,50 2.58063,5.12497 5.3302,14.94531 10.46063,17.97223 5.40997,3.19183 16.62653,1.02777 22.78705,1.02777 v -98 h -22 l 3,68 -24.57562,-50 -9.81482,-16.97223 -23.60956,-1.02777 m 185,3 c -1.50885,11.92938 -0.71814,19.31994 -14,21 v 17 h 10 c 0,15.21594 -4.31873,38.39276 6.39044,50.90585 5.35431,6.25626 29.40234,12.69736 35.56708,4.36655 2.65191,-3.58374 -1.14313,-12.32465 -1.95752,-16.2724 -16.40589,2.06253 -17,-9.52832 -17,-23 0,-3.88007 -1.40723,-11.38602 1.60339,-14.39661 3.2749,-3.27487 12.11957,-1.60339 16.39661,-1.60339 v -18 l -16.39661,-1.6034 -1.60339,-18.3966 h -19 m -414,3 v 12 h -110 -24 l -8.97222,-1.6034 -1.02778,-10.3966 h 144 m 353,15.46451 c -47.78546,8.61563 -34.15241,86.34085 15,77.0679 45.79645,-8.63983 32.40381,-85.61469 -15,-77.0679 m 161,8.53549 c 1.1839,4.10974 4.18243,14.17187 9.10492,15.00616 11.21313,1.90045 22.88006,-13.83282 29.89508,3.99384 -12.12213,1.53335 -28.12299,3.13327 -36.60956,13.09335 -11.31958,13.2851 -3.0871,34.51047 13.60956,37.44138 9.87121,1.73279 17.84717,-4.01374 26,-8.53473 l 1,7 h 19 c 0,-25.32776 9.79144,-73.25083 -26,-76.82947 -5.05011,-0.50494 -10.04224,0.15878 -15,1.09027 -7.54987,1.41852 -13.99591,4.82312 -21,7.7392 m 450.99998,62 -7,-15 c -15.701,4.48846 -26.6812,7.45001 -35,-10 h 44 c 2.0836,-11.22327 1.2497,-24.42764 -5.6374,-33.99924 -11.5571,-16.06192 -36.9388,-15.25635 -50.1782,-1.82715 -17.6207,17.87332 -13.9463,54.14273 9.8156,64.92209 14.95,6.78192 29.9816,1.7406 44,-4.0957 m -197,-69 v 75 h 23 v -75 h -23 m -773.99998,7 v 19 h -132 l 1.60339,-17.97223 9.39661,-1.02777 h 25 96 m 953.99998,22 h -25 c 2.4845,-15.91858 24.1921,-17.38062 25,0 m -590.99919,-11.5625 c 18.66968,-4.90213 20.93335,35.0469 5.99841,39.12884 -19.37603,5.29578 -21.83044,-34.9718 -5.99841,-39.12884 m 195.99921,23.5625 c 0,3.66321 0.81463,8.57815 -1.02777,11.89505 -2.67365,4.81329 -12.42469,7.48367 -16.36884,2.78705 -8.21905,-9.78714 11.4137,-14.42127 17.39661,-14.6821 z"
       id="path1" />
  </g>
</svg>
